<svg xmlns="http://www.w3.org/2000/svg" viewBox="0 0 320 180" fill="none">
  <rect width="320" height="180" fill="#F3EAD8"/>
  <rect x="120" y="12" width="80" height="36" rx="6" fill="#8B6E4E" opacity="0.9"/>
  <text x="160" y="35" text-anchor="middle" fill="#FAF4EB" font-family="system-ui,sans-serif" font-size="11" font-weight="600">Root?</text>
  <path d="M160 48 L90 78 M160 48 L230 78" stroke="#7A776D" stroke-width="2"/>
  <rect x="50" y="78" width="80" height="32" rx="6" fill="#fff" stroke="#C4A97D"/>
  <rect x="190" y="78" width="80" height="32" rx="6" fill="#fff" stroke="#C4A97D"/>
  <path d="M90 110 L55 138 M90 110 L125 138 M230 110 L195 138 M230 110 L265 138" stroke="#A09C92" stroke-width="1.5"/>
  <rect x="28" y="138" width="54" height="28" rx="5" fill="#2C2C28" opacity="0.08"/>
  <rect x="98" y="138" width="54" height="28" rx="5" fill="#2C2C28" opacity="0.08"/>
  <rect x="168" y="138" width="54" height="28" rx="5" fill="#2C2C28" opacity="0.08"/>
  <rect x="238" y="138" width="54" height="28" rx="5" fill="#2C2C28" opacity="0.08"/>
</svg>
